<svg xmlns="http://www.w3.org/2000/svg" enable-background="new 0 0 512 512" height="512" version="1.1" viewBox="0 0 512 512" width="512" xml:space="preserve"><path d="M507 257c0 138.1-111.9 250-250 250C118.9 507 7 395.1 7 257 7 118.9 118.9 7 257 7 395.1 7 507 118.9 507 257L507 257zM507 257" fill="#3C5A99"/><path d="M319.8 266.8h-44.6v163.4h-67.6V266.8h-32.1v-57.4h32.1v-37.2c0-26.6 12.6-68.2 68.2-68.2l50 0.2v55.8h-36.3c-6 0-14.3 3-14.3 15.6v33.8h50.5L319.8 266.8zM319.8 266.8" fill="#FFFFFF"/></svg>