<svg xmlns="http://www.w3.org/2000/svg" enable-background="new 0 0 512 512" height="512px" version="1.1" viewBox="0 0 512 512" width="512px" xml:space="preserve"><path d="M507 256.879c0 138.066-111.934 250-250 250 -138.067 0-250-111.934-250-250 0-138.067 111.933-250 250-250C395.066 6.879 507 118.812 507 256.879L507 256.879zM507 256.879 410.125 186.551c-10.706 4.747-22.239 7.964-34.315 9.403 12.338-7.404 21.803-19.108 26.286-33.056 -11.555 6.835-24.35 11.816-37.95 14.495 -10.901-11.62-26.438-18.869-43.628-18.869 -33.01 0-59.753 26.768-59.753 59.75 0 4.681 0.522 9.253 1.545 13.627 -49.656-2.502-93.698-26.289-123.162-62.454 -5.157 8.837-8.095 19.103-8.095 30.048 0 20.74 10.554 39.04 26.569 49.746 -9.792-0.308-18.996-3.003-27.069-7.485 0 0.261 0 0.5 0 0.762 0 28.94 20.607 53.094 47.938 58.577 -5.005 1.371-10.292 2.116-15.732 2.116 -3.852 0-7.594-0.375-11.25-1.071 7.616 23.74 29.681 41.018 55.836 41.496 -20.454 16.037-46.218 25.568-74.223 25.568 -4.831 0-9.596-0.262-14.253-0.827 26.438 16.951 57.838 26.852 91.588 26.852 109.91 0 170.032-91.065 170.032-170.029 0-2.592-0.065-5.16-0.174-7.728C391.999 209.051 402.117 198.521 410.125 186.551L410.125 186.551zM410.125 186.551" fill="#5FA9DD"/></svg>