<svg id="Layer_1" data-name="Layer 1" xmlns="http://www.w3.org/2000/svg" width="744.16" height="757.5" viewBox="0 0 744.16 757.5"><defs><style>.cls-1{fill:#b00;fill-rule:evenodd}.cls-2{fill:#fff}</style></defs><title>TS_YouTube</title><path class="cls-1" d="M372.04-.02c205.5 0 372.08 169.57 372.08 378.75S577.57 757.5 372.04 757.5.04 587.92.04 378.74 166.58-.02 372.04-.02z"/><path id="youtube-new-icon" class="cls-2" d="M574.46 302.98c-6.48-55-28.3-62.63-71.72-65.59-61.74-4.2-199.56-4.2-261.34 0-43.42 3-65.24 10.54-71.72 65.59-4.81 40.87-4.83 110.62 0 151.63 6.48 55 28.3 62.63 71.72 65.59 61.78 4.2 199.6 4.2 261.34 0 43.42-3 65.24-10.54 71.72-65.59 4.81-40.92 4.83-110.63 0-151.63zM331.04 436.27V321.35l110.21 57.46z"/></svg>